<svg width="100" height="100" viewBox="0 0 100 100" fill="none" xmlns="http://www.w3.org/2000/svg">
<path d="M38.9557 61.9072C22.4399 61.9072 8.3335 64.4585 8.3335 74.6557C8.3335 84.8609 22.3502 87.5 38.9557 87.5C55.4716 87.5 69.5779 84.9487 69.5779 74.7515C69.5779 64.5464 55.5613 61.9072 38.9557 61.9072Z" fill="#1B97DF"/>
<path opacity="0.4" d="M38.9555 52.1868C50.2039 52.1868 59.2181 43.3591 59.2181 32.3434C59.2181 21.3277 50.2039 12.5 38.9555 12.5C27.7112 12.5 18.6929 21.3277 18.6929 32.3434C18.6929 43.3591 27.7112 52.1868 38.9555 52.1868Z" fill="#130F26"/>
<path opacity="0.4" d="M67.3892 32.703C67.3892 38.3127 65.6688 43.547 62.6518 47.895C62.3379 48.3422 62.6151 48.9451 63.1614 49.0409C63.9197 49.1647 64.6984 49.2405 65.4934 49.2565C73.4028 49.4601 80.5008 44.4733 82.4619 36.9632C85.3687 25.8197 76.8397 15.8142 65.9745 15.8142C64.7963 15.8142 63.667 15.934 62.5662 16.1536C62.4153 16.1855 62.2522 16.2574 62.1707 16.3852C62.0647 16.5489 62.1422 16.7605 62.2482 16.9002C65.5138 21.3839 67.3892 26.8419 67.3892 32.703Z" fill="#130F26"/>
<path d="M90.7464 63.2056C89.299 60.1832 85.8051 58.111 80.4887 57.0929C77.9813 56.494 71.1891 55.6436 64.8738 55.7633C64.7801 55.7753 64.7271 55.8392 64.7189 55.8791C64.7067 55.943 64.7352 56.0388 64.8575 56.1067C67.7766 57.5201 79.0577 63.6688 77.6389 76.6368C77.5777 77.2038 78.0384 77.6829 78.6133 77.6031C81.3897 77.2158 88.5326 75.7105 90.7464 71.0312C91.9735 68.5557 91.9735 65.681 90.7464 63.2056Z" fill="#130F26"/>
</svg>
