<svg width="60" height="60" viewBox="0 0 60 60" fill="none" xmlns="http://www.w3.org/2000/svg">
<path opacity="0.4" fill-rule="evenodd" clip-rule="evenodd" d="M38.107 11.8439C38.107 17.3964 42.6148 21.8976 48.1754 21.8976C48.7877 21.8945 49.3984 21.8358 50 21.722V41.6537C50 50.039 45.0537 55 36.6561 55H18.3659C9.94626 55 5 50.039 5 41.6537V23.3902C5 15.0049 9.94626 10 18.3659 10H38.2829C38.1647 10.6075 38.1058 11.225 38.107 11.8439ZM32.8749 37.2415L40.0195 28.0219V27.978C40.6312 27.1562 40.4751 25.9972 39.6678 25.3659C39.277 25.0642 38.7805 24.9336 38.2917 25.004C37.8028 25.0743 37.3634 25.3395 37.0738 25.739L31.0503 33.4878L24.1915 28.0878C23.7999 27.7827 23.3018 27.648 22.8095 27.7141C22.3173 27.7802 21.8725 28.0415 21.5755 28.439L14.1891 37.9659C13.9294 38.2895 13.7896 38.6927 13.7934 39.1073C13.7505 39.9453 14.2797 40.7066 15.0809 40.9595C15.8822 41.2124 16.7534 40.8933 17.2008 40.1829L23.3781 32.1927L30.2369 37.5707C30.627 37.8852 31.1285 38.0278 31.626 37.9657C32.1235 37.9036 32.5744 37.6422 32.8749 37.2415Z" fill="#1B97DF"/>
<circle cx="48.75" cy="11.25" r="6.25" fill="#1B97DF"/>
</svg>
