<svg width="60" height="60" viewBox="0 0 60 60" fill="none" xmlns="http://www.w3.org/2000/svg">
<path opacity="0.4" d="M5 19.7898V40.2098C5 49.0573 10.69 54.9998 19.1625 54.9998H40.8375C49.31 54.9998 55 49.0573 55 40.2098V19.7898C55 10.9448 49.3075 4.99976 40.835 4.99976H19.1625C10.69 4.99976 5 10.9448 5 19.7898Z" fill="#1B97DF"/>
<path d="M19.3018 32.1385L28.6718 41.551C29.3768 42.2585 30.6243 42.2585 31.3318 41.551L40.7018 32.1385C41.4318 31.4035 41.4293 30.216 40.6943 29.486C39.9593 28.756 38.7743 28.756 38.0418 29.491L31.8743 35.6835V19.796C31.8743 18.7585 31.0343 17.921 29.9993 17.921C28.9643 17.921 28.1243 18.7585 28.1243 19.796V35.6835L21.9593 29.491C21.5918 29.1235 21.1118 28.941 20.6293 28.941C20.1518 28.941 19.6718 29.1235 19.3068 29.486C18.5743 30.216 18.5718 31.4035 19.3018 32.1385Z" fill="#1B97DF"/>
</svg>
