<svg width="60" height="60" viewBox="0 0 60 60" fill="none" xmlns="http://www.w3.org/2000/svg">
<path opacity="0.4" d="M55 29.9998C55 43.8073 43.8075 54.9998 30 54.9998C16.1925 54.9998 5 43.8073 5 29.9998C5 16.1948 16.1925 4.99976 30 4.99976C43.8075 4.99976 55 16.1948 55 29.9998Z" fill="#1B97DF"/>
<path d="M39.6498 21.7623L35.5998 34.5623C35.4498 35.0873 35.0248 35.5123 34.4998 35.6648L21.7498 39.6623C20.8998 39.9398 20.0748 39.1123 20.3498 38.2623L24.3498 25.4373C24.4998 24.9123 24.9248 24.5123 25.4498 24.3373L38.2498 20.3373C39.1248 20.0623 39.9248 20.8873 39.6498 21.7623Z" fill="#1B97DF"/>
</svg>
