<svg width="100" height="100" viewBox="0 0 100 100" fill="none" xmlns="http://www.w3.org/2000/svg">
<path opacity="0.4" d="M83.3027 78.9719H59.5765C57.2617 78.9719 55.3789 80.8845 55.3789 83.236C55.3789 85.592 57.2617 87.5 59.5765 87.5H83.3027C85.6175 87.5 87.5003 85.592 87.5003 83.236C87.5003 80.8845 85.6175 78.9719 83.3027 78.9719" fill="#1B97DF"/>
<path d="M42.9543 28.7662L65.437 46.9332C65.9793 47.3677 66.0719 48.165 65.6487 48.7204L38.9948 83.4509C37.3192 85.5964 34.8501 86.8102 32.2045 86.855L17.654 87.0342C16.878 87.0431 16.1989 86.5057 16.0226 85.7353L12.7156 71.3575C12.1424 68.7149 12.7156 65.9826 14.3912 63.8775L41.1773 28.9812C41.6094 28.4213 42.4075 28.3227 42.9543 28.7662" fill="#006493"/>
<path opacity="0.4" d="M75.5024 36.106L71.1681 41.5167C70.7316 42.0676 69.9467 42.1572 69.4044 41.7183C64.1353 37.4542 50.643 26.5119 46.8996 23.4795C46.3528 23.0316 46.2779 22.2344 46.7188 21.679L50.8988 16.4877C54.6907 11.6056 61.3046 11.1577 66.6398 15.4128L72.7686 20.2949C75.2819 22.2657 76.9574 24.8636 77.5306 27.5958C78.192 30.6012 77.4865 33.5529 75.5024 36.106" fill="#247B9F"/>
</svg>
