<svg width="60" height="60" viewBox="0 0 60 60" fill="none" xmlns="http://www.w3.org/2000/svg">
<path d="M30.0303 37.0752C26.0191 37.0752 22.7744 33.9502 22.7744 30.0252C22.7744 26.1002 26.0191 22.9502 30.0303 22.9502C34.0415 22.9502 37.2096 26.1002 37.2096 30.0252C37.2096 33.9502 34.0415 37.0752 30.0303 37.0752Z" fill="#1B97DF"/>
<path opacity="0.4" d="M53.0753 35.9252C52.5899 35.1752 51.9001 34.4252 51.0059 33.9502C50.2905 33.6002 49.8306 33.0252 49.4218 32.3502C48.1188 30.2002 48.8853 27.3752 51.057 26.1002C53.6119 24.6752 54.4294 21.5002 52.9476 19.0252L51.2358 16.0752C49.7795 13.6002 46.5859 12.7252 44.0566 14.1752C41.8082 15.3752 38.9212 14.5752 37.6182 12.4502C37.2094 11.7502 36.9795 11.0002 37.0306 10.2502C37.1072 9.27524 36.8007 8.35024 36.3408 7.60024C35.3955 6.05024 33.6837 5.00024 31.7931 5.00024H28.1907C26.3256 5.05024 24.6138 6.05024 23.6685 7.60024C23.1831 8.35024 22.902 9.27524 22.9531 10.2502C23.0042 11.0002 22.7743 11.7502 22.3655 12.4502C21.0625 14.5752 18.1755 15.3752 15.9527 14.1752C13.3978 12.7252 10.2298 13.6002 8.74793 16.0752L7.03615 19.0252C5.57986 21.5002 6.39742 24.6752 8.92677 26.1002C11.0984 27.3752 11.8649 30.2002 10.5874 32.3502C10.1531 33.0252 9.69324 33.6002 8.97787 33.9502C8.1092 34.4252 7.34273 35.1752 6.93395 35.9252C5.98864 37.4752 6.03974 39.4252 6.98505 41.0502L8.74793 44.0502C9.69324 45.6502 11.4561 46.6502 13.2956 46.6502C14.1643 46.6502 15.1863 46.4002 16.0038 45.9002C16.6425 45.4752 17.409 45.3252 18.2521 45.3252C20.7815 45.3252 22.902 47.4002 22.9531 49.8752C22.9531 52.7502 25.3036 55.0002 28.2673 55.0002H31.742C34.6801 55.0002 37.0306 52.7502 37.0306 49.8752C37.1072 47.4002 39.2278 45.3252 41.7571 45.3252C42.5747 45.3252 43.3412 45.4752 44.0055 45.9002C44.823 46.4002 45.8194 46.6502 46.7136 46.6502C48.5276 46.6502 50.2905 45.6502 51.2358 44.0502L53.0242 41.0502C53.944 39.3752 54.0206 37.4752 53.0753 35.9252Z" fill="#1B97DF"/>
</svg>
