<svg width="64" height="48" viewBox="0 0 64 48" fill="none" xmlns="http://www.w3.org/2000/svg">
<g filter="url(#filter0_d_3440_11915)">
<path d="M31.8731 26.3499C23.2481 26.3499 15.9707 27.7592 15.9707 33.1986C15.9707 38.6402 23.2951 40 31.8731 40C40.498 40 47.7754 38.5907 47.7754 33.1513C47.7754 27.7097 40.451 26.3499 31.8731 26.3499" fill="#D9D9D9"/>
<path d="M31.8728 21.1676C37.7131 21.1676 42.3961 16.4577 42.3961 10.5838C42.3961 4.70766 37.7131 0 31.8728 0C26.0326 0 21.3496 4.70766 21.3496 10.5838C21.3496 16.4577 26.0326 21.1676 31.8728 21.1676" fill="#1B97DF"/>
<path d="M54.7194 13.0481C56.2304 7.1044 51.8004 1.76636 46.1594 1.76636C45.546 1.76636 44.9595 1.8339 44.3865 1.94872C44.3104 1.96673 44.2253 2.005 44.1805 2.07255C44.1291 2.1581 44.1671 2.27292 44.2231 2.34722C45.9176 4.73819 46.8914 7.64924 46.8914 10.7742C46.8914 13.7685 45.9982 16.5602 44.4313 18.8769C44.2701 19.1156 44.4133 19.4375 44.6976 19.4871C45.0916 19.5568 45.4945 19.5929 45.9064 19.6041C50.0141 19.7122 53.7009 17.0533 54.7194 13.0481" fill="#1B97DF"/>
<path d="M59.0235 27.0424C58.2714 25.4304 56.456 24.325 53.6959 23.7824C52.3931 23.4627 48.8674 23.0124 45.588 23.0732C45.5388 23.0799 45.5119 23.1137 45.5074 23.1362C45.5007 23.1678 45.5141 23.2218 45.579 23.2556C47.0945 24.0098 52.9527 27.29 52.2162 34.2086C52.1849 34.508 52.4244 34.7669 52.7221 34.7219C54.1637 34.5148 57.8729 33.7133 59.0235 31.2165C59.6593 29.8972 59.6593 28.364 59.0235 27.0424" fill="#D9D9D9"/>
<path d="M19.6117 1.94945C19.0409 1.83238 18.4522 1.76709 17.8388 1.76709C12.1978 1.76709 7.76777 7.10514 9.281 13.0488C10.2973 17.054 13.9841 19.7129 18.0918 19.6049C18.5037 19.5936 18.9088 19.5553 19.3006 19.4878C19.5849 19.4383 19.7281 19.1163 19.5669 18.8777C18 16.5587 17.1068 13.7693 17.1068 10.7749C17.1068 7.64772 18.0828 4.73667 19.7774 2.34795C19.8311 2.27365 19.8714 2.15883 19.8177 2.07328C19.7729 2.00349 19.6901 1.96746 19.6117 1.94945" fill="#1B97DF"/>
<path d="M10.3039 23.7817C7.54381 24.3243 5.73062 25.4298 4.97848 27.0418C4.34051 28.3633 4.34051 29.8965 4.97848 31.2181C6.12907 33.7126 9.83828 34.5164 11.2799 34.7213C11.5776 34.7663 11.8149 34.5096 11.7835 34.2079C11.0471 27.2917 16.9052 24.0114 18.423 23.2572C18.4856 23.2212 18.4991 23.1694 18.4923 23.1356C18.4879 23.1131 18.4632 23.0793 18.414 23.0748C15.1323 23.0118 11.6089 23.4621 10.3039 23.7817" fill="#D9D9D9"/>
</g>
<defs>
<filter id="filter0_d_3440_11915" x="0.5" y="0" width="63" height="48" filterUnits="userSpaceOnUse" color-interpolation-filters="sRGB">
<feFlood flood-opacity="0" result="BackgroundImageFix"/>
<feColorMatrix in="SourceAlpha" type="matrix" values="0 0 0 0 0 0 0 0 0 0 0 0 0 0 0 0 0 0 127 0" result="hardAlpha"/>
<feOffset dy="4"/>
<feGaussianBlur stdDeviation="2"/>
<feComposite in2="hardAlpha" operator="out"/>
<feColorMatrix type="matrix" values="0 0 0 0 0 0 0 0 0 0 0 0 0 0 0 0 0 0 0.25 0"/>
<feBlend mode="normal" in2="BackgroundImageFix" result="effect1_dropShadow_3440_11915"/>
<feBlend mode="normal" in="SourceGraphic" in2="effect1_dropShadow_3440_11915" result="shape"/>
</filter>
</defs>
</svg>
